{"accessors" : [{"bufferView" : 0, "byteOffset" : 0, "componentType" : 5125, "count" : 184320, "type" : "SCALAR", "max" : [126975], "min" : [0]}, {"bufferView" : 1, "byteOffset" : 0, "componentType" : 5126, "count" : 126976, "type" : "VEC3", "max" : [0.9951909780502319, 0.9951909780502319, 0.9951909780502319], "min" : [-0.9951909780502319, -0.9951909780502319, -0.9951900243759155], "name" : "POSITION"}, {"bufferView" : 1, "byteOffset" : 12, "componentType" : 5126, "count" : 126976, "type" : "VEC2", "max" : [1, 1], "min" : [0, 0], "name" : "TEXCOORD_0"}, {"bufferView" : 1, "byteOffset" : 20, "componentType" : 5126, "count" : 126976, "type" : "VEC3", "max" : [0.9998555779457092, 0.9999294877052307, 0.9998555779457092], "min" : [-0.9998555779457092, -0.9999294877052307, -0.9998555779457092], "name" : "NORMAL"}], "asset" : {"generator" : "Aspose.3D 24.6.0", "version" : "2.0"}, "buffers" : [{"uri" : "buffer.bin", "byteLength" : 4800520}], "bufferViews" : [{"buffer" : 0, "byteOffset" : 0, "byteLength" : 737280, "target" : 34963}, {"buffer" : 0, "byteOffset" : 737284, "byteLength" : 4063232, "byteStride" : 32, "target" : 34962}], "meshes" : [{"primitives" : [{"attributes" : {"POSITION" : 1, "TEXCOORD_0" : 2, "NORMAL" : 3}, "indices" : 0, "mode" : 4}], "name" : ""}], "nodes" : [{"mesh" : 0, "name" : "Sphere"}], "scene" : 0, "scenes" : [{"nodes" : [0]}]}